<?xml version="1.0" encoding="UTF-8"?>
<svg width="3345px" height="894px" viewBox="0 0 3345 894" version="1.1" xmlns="http://www.w3.org/2000/svg" xmlns:xlink="http://www.w3.org/1999/xlink">
    <!-- Generator: Sketch 58 (84663) - https://sketch.com -->
    <title>logo_w_text_white</title>
    <desc>Created with Sketch.</desc>
    <defs>
        <path d="M93.3,293 C77.099919,293 61.4500755,290.700023 46.35,286.1 C31.2499245,281.499977 19.300044,275.400038 10.5,267.8 L24,237.5 C32.600043,244.300034 43.1499375,249.849979 55.65,254.15 C68.1500625,258.450021 80.699937,260.6 93.3,260.6 C108.900078,260.6 120.549961,258.100025 128.25,253.1 C135.950039,248.099975 139.8,241.500041 139.8,233.3 C139.8,227.29997 137.650021,222.35002 133.35,218.45 C129.049979,214.549981 123.600033,211.500011 117,209.3 L115.434314,208.78698 C109.001163,206.713602 100.52313,204.384628 90,201.8 L87.930331,201.304346 C72.8796096,197.669549 60.6196126,194.034801 51.15,190.4 C41.2499505,186.599981 32.7500355,180.65004 25.65,172.55 C18.5499645,164.44996 15,153.500069 15,139.7 C15,128.099942 18.1499685,117.550048 24.45,108.05 C30.7500315,98.5499525 40.2499365,91.000028 52.95,85.4 C65.6500635,79.799972 81.199908,77 99.6,77 C112.400064,77 124.999938,78.599984 137.4,81.8 C149.800062,85.000016 160.499955,89.59997 169.5,95.6 L157.2,125.9 C147.999954,120.499973 138.40005,116.400014 128.4,113.6 C118.39995,110.799986 108.700047,109.4 99.3,109.4 C83.899923,109.4 72.4500375,111.999974 64.95,117.2 C57.4499625,122.400026 53.7,129.299957 53.7,137.9 C53.7,143.90003 55.8499785,148.799981 60.15,152.6 C64.4500215,156.400019 69.899967,159.399989 76.5,161.6 L78.065686,162.11302 C84.4988366,164.186398 92.9768705,166.515372 103.5,169.1 C119.100078,172.700018 131.89995,176.449981 141.9,180.35 C151.90005,184.25002 160.449964,190.19996 167.55,198.2 C174.650036,206.20004 178.2,216.999932 178.2,230.6 C178.2,242.200058 175.050031,252.699953 168.75,262.1 C162.449968,271.500047 152.900064,278.999972 140.1,284.6 C127.299936,290.200028 111.700092,293 93.3,293 Z M309.6,281.3 C305.199978,284.900018 299.850032,287.599991 293.55,289.4 C287.249968,291.200009 280.600035,292.1 273.6,292.1 C255.999912,292.1 242.400048,287.500046 232.8,278.3 C223.199952,269.099954 218.4,255.700088 218.4,238.1 L218.4,161 L192,161 L192,131 L218.4,131 L218.4,94.4 L255.9,94.4 L255.9,131 L298.8,131 L298.8,161 L255.9,161 L255.9,237.2 C255.9,245.000039 257.799981,250.94998 261.6,255.05 C265.400019,259.15002 270.899964,261.2 278.1,261.2 C286.500042,261.2 293.499972,259.000022 299.1,254.6 L309.6,281.3 Z M401.7,128 C425.300118,128 443.349938,133.649944 455.85,144.95 C468.350062,156.250056 474.6,173.299886 474.6,196.1 L474.6,290 L439.2,290 L439.2,270.5 C434.599977,277.500035 428.050043,282.849982 419.55,286.55 C411.049958,290.250019 400.80006,292.1 388.8,292.1 C376.79994,292.1 366.300045,290.05002 357.3,285.95 C348.299955,281.84998 341.350024,276.150036 336.45,268.85 C331.549975,261.549963 329.1,253.300046 329.1,244.1 C329.1,229.699928 334.449946,218.150044 345.15,209.45 C355.722672,200.853528 372.29957,196.504187 394.881182,196.401849 L437.1,196.4 L437.1,194 C437.1,182.799944 433.750033,174.20003 427.05,168.2 C420.349966,162.19997 410.400066,159.2 397.2,159.2 C388.199955,159.2 379.350043,160.599986 370.65,163.4 C361.949956,166.200014 354.60003,170.099975 348.6,175.1 L333.9,147.8 C342.300042,141.399968 352.399941,136.500017 364.2,133.1 C376.000059,129.699983 388.499934,128 401.7,128 Z M396.6,264.8 C406.000047,264.8 414.349963,262.650021 421.65,258.35 C428.950037,254.049979 434.099985,247.90004 437.1,239.9 L437.1,221.3 L398.4,221.3 C376.799892,221.3 366,228.399929 366,242.6 C366,249.400034 368.699973,254.79998 374.1,258.8 C379.500027,262.80002 386.999952,264.8 396.6,264.8 Z M588,221.3 L560.1,247.7 L560.1,290 L522.6,290 L522.6,67.4 L560.1,67.4 L560.1,201.8 L637.8,129.8 L682.8,129.8 L615.9,197 L689.1,290 L643.5,290 L588,221.3 Z M711.9,129.8 L749.4,129.8 L749.4,290 L711.9,290 L711.9,129.8 Z M730.8,103.4 C723.999966,103.4 718.300023,101.250022 713.7,96.95 C709.099977,92.6499785 706.8,87.300032 706.8,80.9 C706.8,74.499968 709.099977,69.1500215 713.7,64.85 C718.300023,60.5499785 723.999966,58.4 730.8,58.4 C737.600034,58.4 743.299977,60.4499795 747.9,64.55 C752.500023,68.6500205 754.8,73.799969 754.8,80 C754.8,86.600033 752.550022,92.1499775 748.05,96.65 C743.549977,101.150022 737.800035,103.4 730.8,103.4 Z M889.5,128 C909.700101,128 925.899939,133.899941 938.1,145.7 C950.300061,157.500059 956.4,174.999884 956.4,198.2 L956.4,290 L918.9,290 L918.9,203 C918.9,188.99993 915.600033,178.450036 909,171.35 C902.399967,164.249965 893.000061,160.7 880.8,160.7 C866.999931,160.7 856.10004,164.849959 848.1,173.15 C840.09996,181.450042 836.1,193.399922 836.1,209 L836.1,290 L798.6,290 L798.6,129.8 L834.3,129.8 L834.3,150.5 C840.500031,143.099963 848.299953,137.500019 857.7,133.7 C867.100047,129.899981 877.699941,128 889.5,128 Z M1164.6,129.8 L1164.6,265.7 C1164.6,322.100282 1135.80029,350.3 1078.2,350.3 C1062.79992,350.3 1048.20007,348.350019 1034.4,344.45 C1020.59993,340.549981 1009.20005,334.900037 1000.2,327.5 L1017,299.3 C1024.00004,305.100029 1032.84995,309.749982 1043.55,313.25 C1054.25005,316.750018 1065.09994,318.5 1076.1,318.5 C1093.70009,318.5 1106.59996,314.50004 1114.8,306.5 C1123.00004,298.49996 1127.1,286.300082 1127.1,269.9 L1127.1,261.5 C1120.69997,268.500035 1112.90005,273.799982 1103.7,277.4 C1094.49995,281.000018 1084.40006,282.8 1073.4,282.8 C1058.19992,282.8 1044.45006,279.550032 1032.15,273.05 C1019.84994,266.549967 1010.15004,257.400059 1003.05,245.6 C995.949965,233.799941 992.4,220.300076 992.4,205.1 C992.4,189.899924 995.949965,176.450059 1003.05,164.75 C1010.15004,153.049942 1019.84994,144.000032 1032.15,137.6 C1044.45006,131.199968 1058.19992,128 1073.4,128 C1085.00006,128 1095.54995,129.899981 1105.05,133.7 C1114.55005,137.500019 1122.49997,143.299961 1128.9,151.1 L1128.9,129.8 L1164.6,129.8 Z M1079.1,251 C1093.30007,251 1104.94995,246.750043 1114.05,238.25 C1123.15005,229.749957 1127.7,218.700068 1127.7,205.1 C1127.7,191.699933 1123.15005,180.800042 1114.05,172.4 C1104.94995,163.999958 1093.30007,159.8 1079.1,159.8 C1064.69993,159.8 1052.95005,163.999958 1043.85,172.4 C1034.74995,180.800042 1030.2,191.699933 1030.2,205.1 C1030.2,218.700068 1034.74995,229.749957 1043.85,238.25 C1052.95005,246.750043 1064.69993,251 1079.1,251 Z M1436.4,241.4 L1331.4,241.4 L1310.7,290 L1270.5,290 L1365,80 L1403.4,80 L1498.2,290 L1457.4,290 L1436.4,241.4 Z M1423.5,210.8 L1383.9,119 L1344.6,210.8 L1423.5,210.8 Z M1678.8,129.8 L1678.8,265.7 C1678.8,322.100282 1650.00029,350.3 1592.4,350.3 C1576.99992,350.3 1562.40007,348.350019 1548.6,344.45 C1534.79993,340.549981 1523.40005,334.900037 1514.4,327.5 L1531.2,299.3 C1538.20004,305.100029 1547.04995,309.749982 1557.75,313.25 C1568.45005,316.750018 1579.29994,318.5 1590.3,318.5 C1607.90009,318.5 1620.79996,314.50004 1629,306.5 C1637.20004,298.49996 1641.3,286.300082 1641.3,269.9 L1641.3,261.5 C1634.89997,268.500035 1627.10005,273.799982 1617.9,277.4 C1608.69995,281.000018 1598.60006,282.8 1587.6,282.8 C1572.39992,282.8 1558.65006,279.550032 1546.35,273.05 C1534.04994,266.549967 1524.35004,257.400059 1517.25,245.6 C1510.14996,233.799941 1506.6,220.300076 1506.6,205.1 C1506.6,189.899924 1510.14996,176.450059 1517.25,164.75 C1524.35004,153.049942 1534.04994,144.000032 1546.35,137.6 C1558.65006,131.199968 1572.39992,128 1587.6,128 C1599.20006,128 1609.74995,129.899981 1619.25,133.7 C1628.75005,137.500019 1636.69997,143.299961 1643.1,151.1 L1643.1,129.8 L1678.8,129.8 Z M1593.3,251 C1607.50007,251 1619.14995,246.750043 1628.25,238.25 C1637.35005,229.749957 1641.9,218.700068 1641.9,205.1 C1641.9,191.699933 1637.35005,180.800042 1628.25,172.4 C1619.14995,163.999958 1607.50007,159.8 1593.3,159.8 C1578.89993,159.8 1567.15005,163.999958 1558.05,172.4 C1548.94995,180.800042 1544.4,191.699933 1544.4,205.1 C1544.4,218.700068 1548.94995,229.749957 1558.05,238.25 C1567.15005,246.750043 1578.89993,251 1593.3,251 Z M1878.6,210.8 L1878.59583,211.472919 C1878.56528,214.024313 1878.36667,217.499978 1878,221.9 L1752.3,221.9 C1754.50001,233.700059 1760.24995,243.049965 1769.55,249.95 C1778.85005,256.850034 1790.39993,260.3 1804.2,260.3 C1821.80009,260.3 1836.29994,254.500058 1847.7,242.9 L1867.8,266 C1860.59996,274.600043 1851.50005,281.099978 1840.5,285.5 C1829.49995,289.900022 1817.10007,292.1 1803.3,292.1 C1785.69991,292.1 1770.20007,288.600035 1756.8,281.6 C1743.39993,274.599965 1733.05004,264.850063 1725.75,252.35 C1718.44996,239.849938 1714.8,225.700079 1714.8,209.9 C1714.8,194.299922 1718.34996,180.250063 1725.45,167.75 C1732.55004,155.249937 1742.39994,145.500035 1755,138.5 C1767.60006,131.499965 1781.79992,128 1797.6,128 C1813.20008,128 1827.14994,131.449966 1839.45,138.35 C1851.75006,145.250035 1861.34997,154.949938 1868.25,167.45 C1875.15003,179.950063 1878.6,194.399918 1878.6,210.8 Z M1797.6,158 C1785.59994,158 1775.45004,161.549964 1767.15,168.65 C1758.84996,175.750036 1753.80001,185.199941 1752,197 L1842.9,197 C1841.29999,185.399942 1836.40004,176.000036 1828.2,168.8 C1819.99996,161.599964 1809.80006,158 1797.6,158 Z M2005.5,128 C2025.7001,128 2041.89994,133.899941 2054.1,145.7 C2066.30006,157.500059 2072.4,174.999884 2072.4,198.2 L2072.4,290 L2034.9,290 L2034.9,203 C2034.9,188.99993 2031.60003,178.450036 2025,171.35 C2018.39997,164.249965 2009.00006,160.7 1996.8,160.7 C1982.99993,160.7 1972.10004,164.849959 1964.1,173.15 C1956.09996,181.450042 1952.1,193.399922 1952.1,209 L1952.1,290 L1914.6,290 L1914.6,129.8 L1950.3,129.8 L1950.3,150.5 C1956.50003,143.099963 1964.29995,137.500019 1973.7,133.7 C1983.10005,129.899981 1993.69994,128 2005.5,128 Z M2195.1,292.1 C2178.49992,292.1 2163.60007,288.600035 2150.4,281.6 C2137.19993,274.599965 2126.90004,264.850063 2119.5,252.35 C2112.09996,239.849938 2108.4,225.700079 2108.4,209.9 C2108.4,194.099921 2112.09996,180.000062 2119.5,167.6 C2126.90004,155.199938 2137.14993,145.500035 2150.25,138.5 C2163.35007,131.499965 2178.29992,128 2195.1,128 C2210.90008,128 2224.74994,131.199968 2236.65,137.6 C2248.55006,144.000032 2257.49997,153.19994 2263.5,165.2 L2234.7,182 C2230.09998,174.599963 2224.35003,169.050019 2217.45,165.35 C2210.54997,161.649982 2203.00004,159.8 2194.8,159.8 C2180.79993,159.8 2169.20005,164.349954 2160,173.45 C2150.79995,182.550046 2146.2,194.699924 2146.2,209.9 C2146.2,225.100076 2150.74995,237.249955 2159.85,246.35 C2168.95005,255.450045 2180.59993,260 2194.8,260 C2203.00004,260 2210.54997,258.150018 2217.45,254.45 C2224.35003,250.749981 2230.09998,245.200037 2234.7,237.8 L2263.5,254.6 C2257.29997,266.60006 2248.25006,275.849967 2236.35,282.35 C2224.44994,288.850032 2210.70008,292.1 2195.1,292.1 Z M2443.8,129.8 L2368.8,302.9 C2361.79996,320.300087 2353.30005,332.549964 2343.3,339.65 C2333.29995,346.750035 2321.20007,350.3 2307,350.3 C2298.99996,350.3 2291.10004,349.000013 2283.3,346.4 C2275.49996,343.799987 2269.10002,340.200023 2264.1,335.6 L2279.1,308 C2282.70002,311.400017 2286.94998,314.09999 2291.85,316.1 C2296.75002,318.10001 2301.69997,319.1 2306.7,319.1 C2313.30003,319.1 2318.74998,317.400017 2323.05,314 C2327.35002,310.599983 2331.29998,304.90004 2334.9,296.9 L2337.6,290.6 L2267.7,129.8 L2306.7,129.8 L2357.1,248.3 L2407.8,129.8 L2443.8,129.8 Z" id="path-1"></path>
    </defs>
    <g id="Page-1" stroke="none" stroke-width="1" fill="none" fill-rule="evenodd">
        <g id="logo_w_text_white" fill-rule="nonzero">
            <g id="WhatsApp-Image-2020-03-27-at-08.21.24-_1_" fill="#FFFFFF">
                <g id="Group" transform="translate(375.500000, 447.000000) scale(-1, 1) rotate(-180.000000) translate(-375.500000, -447.000000) translate(0.000000, -0.000000)">
                    <path d="M397.5,891 C377.1,887.3 362.8,882.7 344.5,874 C333.2,868.6 317.9,859.6 253,820 C237.9,810.7 201.4,788.6 172,770.7 C98.3,726 94.8,723.6 78.1,707.6 C13.9,645.9 -0.6,544.8 43.5,467 C50.8,454.1 56.2,446.7 86.5,408.5 C100.9,390.3 113.3,374.5 114,373.4 C116.6,369.2 114.6,366.5 104.2,360.2 C31.2,315.8 10.8,303.1 7.7,300.1 C3.3,296 0.8,290.2 0.2,282.9 C-0.2,277.3 0.1,275.4 2.2,270.9 C3.7,267.8 16.8,250.4 33.4,229.5 C49.2,209.7 75.7,176.4 92.3,155.5 C108.9,134.6 131.5,106.3 142.4,92.5 C153.4,78.8 166.9,63 172.4,57.5 C203,27 243.5,7.1 286.2,1.5 C300.4,-0.4 325.5,-0.4 339.6,1.4 C367,5.1 398.3,16.5 419.5,30.6 C425.6,34.7 505.3,83.5 538.5,103.5 C545.1,107.5 557.7,115.2 566.5,120.5 C575.3,125.9 595.1,137.9 610.5,147.3 C643.8,167.5 652.6,173.4 665.1,183.9 C686.1,201.6 701.3,218.2 714.1,237.2 C752.7,295 754.7,358.2 719.8,419 C710,436 707.6,439.2 650.2,511.3 C635,530.5 634.7,531.4 641.6,536.5 C643.9,538.1 657,546.3 670.6,554.6 C738.2,595.6 741.3,597.5 744.9,601.7 C749.3,606.7 751,611.6 751,619.7 C751,623.9 750.3,627 748.7,630.1 C747.5,632.5 737.5,645.8 726.6,659.5 C715.6,673.3 698.7,694.4 689.1,706.5 C648,758.2 636.7,772.4 623.8,788.5 C604.4,812.9 586.1,830.4 564,846.1 C530.1,870.2 495.1,885.2 459,891 C442.3,893.7 412.3,893.7 397.5,891 Z M457.7,837.1 C484.8,831.5 514.4,817.1 540.2,797 C548.2,790.8 565.9,774.3 571.7,767.5 C574.6,764.2 591.5,743.2 609.2,720.9 C627,698.5 650.1,669.6 660.5,656.5 C671,643.4 680.1,631.4 680.9,629.9 C683.1,625.6 681,623.5 665.4,614.1 C657.7,609.5 642.7,600.3 632,593.7 C603.2,576 593.8,570.3 558,548.5 C540.1,537.7 522.7,527 519.3,524.9 C515.7,522.7 511.8,521 510.1,521 C507,521 510,517.4 451.5,591 C441.6,603.4 422,628.1 407.8,646 C393.5,663.9 377.2,684.2 371.5,691.2 C348,719.7 316.9,741.5 283.5,752.9 C276.9,755.1 270.7,757.6 269.8,758.5 C268.8,759.3 268,761.4 268,763 C268,766.5 266.7,765.6 301,786.4 C311.2,792.6 327.7,802.7 337.7,808.8 C369.1,828 382,833.6 406,838.1 C418.9,840.6 443.2,840.1 457.7,837.1 Z M246.6,707.4 C274.2,702 295.8,691.1 315.9,672.4 C324.6,664.3 359.6,621.6 361.4,616.9 C363.1,612.1 371.6,617.8 271.5,557 C218.2,524.6 216.1,523.2 209.1,516.1 C185.2,491.8 180.5,454 197.9,425.2 C200.1,421.5 209.4,409 218.7,397.4 C227.9,385.8 244.1,365.6 254.5,352.4 C265,339.3 277.5,323.6 282.4,317.5 C293.3,303.9 295.4,299.7 294.8,291.9 C293.8,278.3 280.8,269.3 267.3,272.9 C261.4,274.5 258.6,277.2 246.3,292.8 C220.4,325.5 184,371.6 174.2,384 C94.9,484.2 95.7,483.2 88.4,496.5 C80.1,511.7 73.8,533.3 72.2,552.2 C68.5,596.2 84.7,639.5 116.1,669.5 C151.7,703.5 198.1,717 246.6,707.4 Z M420.6,543.7 C431.6,529.9 449.4,507.5 460.2,494 C480.8,468 483.8,464.9 491,461.7 C496.8,459.1 508,458.4 514,460.3 C516.5,461 532,469.9 548.5,480 C587.8,504 585.3,502.7 588.2,501.3 C590.8,500.1 655.7,419.1 665.5,404.6 C672.8,394 681.8,376.4 684.8,367 C689.9,351.1 690.4,348 690.4,331.5 C690.4,317 690.2,314.6 687.6,305.5 C678.9,274.4 656,243.7 622.5,218.5 C615,212.9 607.8,208.4 568.5,184.5 C554.8,176.1 535.2,164.3 525.1,158.1 C515,152 506.5,147.1 506.3,147.4 C506,147.6 506.5,151.1 507.4,155.1 C510.5,168.6 512.1,183.5 512.1,199.5 C512.1,230.7 506.3,256.7 492.9,284.8 C485.6,300.3 477.8,312.2 461,333.5 C453.6,342.9 437.5,363.3 425.2,379 C412.9,394.7 401.5,409.1 400,411 C398.5,412.9 385.9,428.9 372,446.5 C358.1,464.1 341.1,485.7 334.2,494.5 C327.2,503.3 319.6,512.6 317.3,515.1 L313,519.7 L332.3,531.3 C342.8,537.7 361.2,548.8 373,556 C388,565.1 395.4,569 397.5,569 C400.2,569 402.4,566.6 420.6,543.7 Z M270.7,483.5 C272.8,482.6 275.3,481.2 276.4,480.2 C278.3,478.5 294.8,458 316,431 C328.8,414.7 334.3,407.7 345.1,394 C385.6,342.9 388.5,339.1 387.4,338 C386.4,337 347.1,313 346.5,313 C346.3,313 345.2,315.9 344,319.4 C341.3,327.8 336.5,335.4 325.5,349.2 C237.4,460 241,455.2 241,463.5 C241,478.6 256.9,489.2 270.7,483.5 Z M155.2,321.3 C156.5,319.7 166.8,306.8 178,292.5 C219.3,239.8 222.1,236.6 235.1,228.8 C247.9,221 266.5,217.1 281.6,219 C298.5,221.1 302.3,222.9 349,251.5 C366.9,262.4 390.7,276.9 401.9,283.7 L422.2,296 L425.5,291.7 C440.1,272.6 451.3,248.4 456.2,225.7 C459,212.5 459.3,188.1 456.7,174.5 C452.7,152.6 444.1,131.8 431.9,114.5 C412.4,87 381.1,65.6 348.2,57.5 C307.1,47.4 263,55.7 228.5,80.2 C212.8,91.3 203.9,101.4 150.9,168 C123.2,202.9 93.7,240 85.5,250.3 C77.2,260.6 70.2,269.9 69.8,270.9 C69.5,271.9 69.7,273.8 70.3,275.1 C71.9,278.1 146.5,323.9 150.1,324 C151.6,324 153.6,322.9 155.2,321.3 Z" id="Shape"></path>
                </g>
            </g>
            <g id="Staking-Agency" transform="translate(901.000000, 265.000000)">
                <g id="StakingAgency">
                    <use fill="#000000" xlink:href="#path-1"></use>
                    <use fill="#FFFFFF" xlink:href="#path-1"></use>
                </g>
            </g>
        </g>
    </g>
</svg>